<?xml version="1.0" encoding="utf-8"?>
<!-- Generator: Adobe Illustrator 26.3.1, SVG Export Plug-In . SVG Version: 6.00 Build 0)  -->
<svg id="ic_email" xmlns="http://www.w3.org/2000/svg" width="16" height="16" viewBox="0 0 16 16">
<style type="text/css">
	.st0{fill:#666666;}
</style>
<path id="Path_33" class="st0" d="M14.4,1.6c0.4,0,0.8,0.2,1.1,0.5C15.8,2.4,16,2.8,16,3.2v9.6c0,0.4-0.2,0.8-0.5,1.1
	c-0.3,0.3-0.7,0.5-1.1,0.5H1.6c-0.4,0-0.8-0.2-1.1-0.5C0.2,13.6,0,13.2,0,12.8V3.2c0-0.4,0.2-0.8,0.5-1.1c0.3-0.3,0.7-0.5,1.1-0.5
	H14.4z M14.4,4.8V3.2L8,7.2l-6.4-4v1.6l6.4,4L14.4,4.8z"/>
</svg>
