<svg id="ic_linkedin" xmlns="http://www.w3.org/2000/svg" width="16" height="15.937" viewBox="0 0 16 15.937">
    <style type="text/css">
	.st0{fill:#666666;}
    @media (prefers-color-scheme: dark) {
      .st0 {
        fill: #999999;
      }
</style>
  <path id="Path_22" class="st0" data-name="Path 22" d="M3.313,3.312a1.908,1.908,0,0,1-.625.423,1.968,1.968,0,0,1-.749.14,1.988,1.988,0,0,1-.743-.14,1.886,1.886,0,0,1-.633-.423,1.915,1.915,0,0,1-.421-.617A1.951,1.951,0,0,1,0,1.937a1.873,1.873,0,0,1,.141-.727A1.929,1.929,0,0,1,.563.593,2.14,2.14,0,0,1,1.188.156,1.793,1.793,0,0,1,1.939,0,1.808,1.808,0,0,1,2.68.156a2.106,2.106,0,0,1,.633.437,1.958,1.958,0,0,1,.421.609,1.832,1.832,0,0,1,.141.735,1.927,1.927,0,0,1-.141.757,1.915,1.915,0,0,1-.421.617m.468,2.125V15.531a.27.27,0,0,1-.039.133c-.025.047-.055.1-.085.148a1.268,1.268,0,0,1-.133.087.306.306,0,0,1-.148.039H.5A.28.28,0,0,1,.368,15.9c-.047-.027-.1-.055-.149-.087a1.318,1.318,0,0,1-.085-.132.315.315,0,0,1-.039-.149V5.437A.284.284,0,0,1,.133,5.3c.027-.047.055-.1.085-.148a1.258,1.258,0,0,1,.133-.085A.294.294,0,0,1,.5,5.031H3.376a.268.268,0,0,1,.132.04c.047.025.1.055.149.085a1.034,1.034,0,0,1,.085.133.292.292,0,0,1,.039.148m8.188,2.719a.934.934,0,0,0-.437-.281,2.195,2.195,0,0,0-.688-.093,2.134,2.134,0,0,0-.867.156,1.455,1.455,0,0,0-.571.437,2.141,2.141,0,0,0-.3.719,4.142,4.142,0,0,0-.1.969v5.468a.412.412,0,0,1-.023.133.4.4,0,0,1-.1.148.492.492,0,0,1-.125.087.355.355,0,0,1-.156.039H5.72a.28.28,0,0,1-.133-.039c-.047-.027-.1-.055-.148-.087a1.127,1.127,0,0,1-.087-.132.315.315,0,0,1-.039-.149V5.437A.284.284,0,0,1,5.352,5.3c.027-.047.055-.1.087-.148a1.118,1.118,0,0,1,.132-.085.3.3,0,0,1,.149-.04H8.5a.6.6,0,0,1,.133.016.348.348,0,0,1,.117.047.12.12,0,0,1,.071.079c.015.041.033.088.055.14a.574.574,0,0,0,.015.125.42.42,0,0,1,.016.093v.251a3.266,3.266,0,0,1,1.251-.759,4.965,4.965,0,0,1,1.593-.241,6.167,6.167,0,0,1,1.781.235,3.519,3.519,0,0,1,1.344.733A3.259,3.259,0,0,1,15.72,7,4.813,4.813,0,0,1,16,8.719v6.812a.412.412,0,0,1-.023.133.4.4,0,0,1-.1.148.492.492,0,0,1-.125.087.355.355,0,0,1-.156.039H12.657a.28.28,0,0,1-.133-.039c-.047-.027-.1-.055-.148-.087a1.127,1.127,0,0,1-.087-.132.315.315,0,0,1-.039-.149V9.375a3.112,3.112,0,0,0-.071-.695,1.639,1.639,0,0,0-.211-.524" />
</svg>
