<?xml version="1.0" encoding="utf-8"?>
<!-- Generator: Adobe Illustrator 23.0.1, SVG Export Plug-In . SVG Version: 6.00 Build 0)  -->
<svg version="1.1" id="Layer_1" xmlns="http://www.w3.org/2000/svg" xmlns:xlink="http://www.w3.org/1999/xlink" x="0px" y="0px"
	 viewBox="0 0 1250 703" style="enable-background:new 0 0 1250 703;" xml:space="preserve">
<style type="text/css">
	.st0{fill:#231F20;}
	.st1{clip-path:url(#SVGID_2_);}
</style>
<title>nvidia-partner-lenovo-logo</title>
<g>
	<g id="g1720" transform="translate(1194.1261,105.4118)">
		<path id="path1722" class="st0" d="M-150,307.9L-150,307.9l-5.1,13.7h-2.6l-5-13.7h-0.1v13.7h-3.4v-17.5h5.5l4.4,11.9l4.4-11.9
			h5.5v17.5h-3.4V307.9z M-178.9,307.1h-5.3v-3h14.1v3h-5.3v14.5h-3.4C-178.9,321.6-178.9,307.1-178.9,307.1z"/>
	</g>
	<g id="g1724" transform="translate(1052.1982,87.278)">
		<path id="path1726" class="st0" d="M-279.7,355L-522,228.4v112.9h-34.6l-0.2-169.2l242.3,126V185.6h34.6L-279.7,355z"/>
	</g>
	<g id="g1728">
		<g>
			<defs>
				<polygon id="SVGID_1_" points="162,479 1107,479 1107,222.7 162,222.7 162,479 				"/>
			</defs>
			<clipPath id="SVGID_2_">
				<use xlink:href="#SVGID_1_"  style="overflow:visible;"/>
			</clipPath>
			<g id="g1730" class="st1">
				<path id="path1736" class="st0" d="M441.8,307.8H234.3v31.7h207.5V307.8z M474.6,360c-1.2,2.8-2.9,5.2-5,7.3
					c-2.1,2.1-4.5,3.7-7.3,4.9c-2.8,1.2-5.8,1.8-9.1,1.8H300.2l-65.9-34.3v88.9h-35.6l0.4-132.3c0-3.2,0.6-6.2,2-9
					c1.3-2.8,3-5.2,5.2-7.3c2.1-2.1,4.6-3.7,7.5-4.9c2.9-1.2,5.9-1.8,9.2-1.8h230.5c3.2,0,6.3,0.6,9.1,1.8c2.8,1.2,5.2,2.9,7.3,4.9
					c2.1,2.1,3.7,4.5,5,7.3c1.2,2.8,1.9,5.8,1.9,9v54.7C476.5,354.3,475.8,357.2,474.6,360"/>
				<g id="g1738" transform="translate(1134.6664,127.7333)">
					<path id="path1740" class="st0" d="M-192.3,231.2l0.2,68.8h-37.2v-68.8L-348.4,145h59.6l77.7,55.9l78.5-56.3h59.6L-192.3,231.2
						z"/>
				</g>
			</g>
		</g>
	</g>
</g>
</svg>
