<?xml version="1.0" encoding="UTF-8"?><svg id="Layer_1" xmlns="http://www.w3.org/2000/svg" width="48" height="48" xmlns:xlink="http://www.w3.org/1999/xlink" viewBox="0 0 48 48"><defs><style>.cls-1{clip-path:url(#clippath-1);}.cls-2{clip-path:url(#clippath);}.cls-3{fill:none;}</style><clipPath id="clippath"><rect class="cls-3" width="48" height="48"/></clipPath><clipPath id="clippath-1"><rect class="cls-3" width="48" height="48"/></clipPath></defs><g id="m48-controller"><g class="cls-2"><g class="cls-1"><path d="m28,20.5c-1.65,0-3,1.35-3,3s1.35,3,3,3,3-1.35,3-3-1.35-3-3-3m0,5c-1.1,0-2-.9-2-2s.9-2,2-2,2,.9,2,2-.9,2-2,2m5-9.76c.83,0,1.5-.67,1.5-1.5s-.67-1.5-1.5-1.5-1.5.67-1.5,1.5.67,1.5,1.5,1.5m0-2c.28,0,.5.23.5.5s-.22.5-.5.5-.5-.22-.5-.5.22-.5.5-.5m0,4.26c-.83,0-1.5.67-1.5,1.5s.67,1.5,1.5,1.5,1.5-.67,1.5-1.5-.67-1.5-1.5-1.5m0,2c-.28,0-.5-.22-.5-.5s.22-.5.5-.5.5.22.5.5-.22.5-.5.5m-2.5-1.5c.83,0,1.5-.67,1.5-1.5s-.67-1.5-1.5-1.5-1.5.67-1.5,1.5.67,1.5,1.5,1.5m0-2c.28,0,.5.22.5.5s-.22.5-.5.5-.5-.22-.5-.5.22-.5.5-.5m5-1c-.83,0-1.5.67-1.5,1.5s.67,1.5,1.5,1.5,1.5-.67,1.5-1.5-.67-1.5-1.5-1.5m0,2c-.28,0-.5-.22-.5-.5s.22-.5.5-.5.5.22.5.5-.22.5-.5.5m-17.5,3c-1.65,0-3,1.35-3,3s1.35,3,3,3,3-1.35,3-3-1.35-3-3-3m0,5c-1.1,0-2-.9-2-2s.9-2,2-2,2,.9,2,2-.9,2-2,2m20.78-12.43c-.23-.87-.92-1.55-1.79-1.77l-6.17-1.6c-.56-.15-1.17-.09-1.69.16l-1.37.65h-7.53l-1.37-.65c-.53-.25-1.13-.3-1.69-.16l-6.17,1.6c-.87.23-1.55.9-1.79,1.77l-3.73,13.93,2.49,9.29,3.64,1.39c.66.25,1.4.21,2.03-.11.63-.32,1.09-.9,1.28-1.58l1.52-5.68,2.72-1.81h9.7l2.72,1.81,1.52,5.67c.18.68.65,1.26,1.28,1.58.36.18.75.27,1.14.27.3,0,.6-.05.89-.16l3.64-1.39,2.49-9.29-3.73-13.93Zm-11.56-1.57l-1.88,7h-2.7l-1.88-7h6.45Zm11.97,24.04l-3.16,1.21c-.4.15-.83.13-1.22-.07-.38-.2-.66-.53-.77-.95l-1.62-6.04-3.28-2.19h-10.3l-3.28,2.19-1.62,6.04c-.11.42-.38.75-.77.95-.38.19-.82.22-1.22.07l-3.16-1.21-2.29-8.54,3.66-13.67c.14-.52.55-.93,1.07-1.06l6.17-1.6c.34-.09.7-.05,1.02.1l1.26.59,2.18,8.15h4.23l2.18-8.15,1.26-.59c.32-.15.68-.18,1.01-.1l6.17,1.6c.52.13.93.54,1.07,1.06l3.66,13.67-2.29,8.54ZM14.5,19.5v-2h-2v-1h2v-2h1v2h2v1h-2v2h-1Z"/></g></g></g></svg>