<?xml version="1.0" encoding="UTF-8"?><svg id="a" xmlns="http://www.w3.org/2000/svg" viewBox="0 0 108.47302 20.01902"><defs><style>.f{fill:#CCCCCC;}</style></defs><g id="b"><path id="c" d="M107.07404,16.05798v-.3h.19202c.10498,0,.24805,.008,.24805,.136s-.073,.16299-.19995,.16299h-.24304m0,.211h.12903l.30005,.524h.32703l-.32996-.545c.16553,.00659,.30505-.12227,.31165-.28783,.00049-.01173,.00024-.02347-.00061-.03517,0-.285-.19995-.377-.53003-.377h-.48206v1.245h.276v-.524m1.40002-.10001c.0238-.66232-.4939-1.21848-1.15625-1.24223-.66235-.02374-1.21851,.49391-1.24219,1.15623-.0238,.66231,.4939,1.21848,1.15625,1.24223l.04224,.00076c.62878,.03319,1.16528-.44958,1.19849-1.07831,.00146-.02621,.00195-.05246,.00146-.07869m-.34705,0c.02039,.47121-.34497,.86977-.81616,.89021-.01294,.00055-.02588,.00082-.03882,.00079h0c-.4906,.01878-.90356-.36371-.92236-.85432-.0188-.49063,.36365-.90358,.85437-.92238,.4906-.01878,.90356,.36371,.92236,.85434l.00061,.03537v-.00401Z"/><path id="d" class="f" d="M64.35199,3.797v13.127h3.707V3.797h-3.707Zm-29.164-.01801v13.145h3.73999V6.724l2.918,.00999c.76715-.07042,1.52744,.19344,2.086,.724,.586,.625,.82599,1.632,.82599,3.476v5.995h3.62399v-7.26599c0-5.183-3.29999-5.882-6.53601-5.882l-6.65796-.002Zm35.134,.01801v13.127h6.013c3.20001,0,4.24899-.533,5.38-1.72701,.95932-1.36891,1.42349-3.02386,1.31601-4.692,.07159-1.59267-.34726-3.16896-1.20001-4.51601-1.37299-1.83299-3.35199-2.19099-6.306-2.19099l-5.203-.00099Zm3.677,2.858h1.59399c2.31201,0,3.80801,1.039,3.80801,3.733s-1.5,3.73399-3.80801,3.73399h-1.59399V6.655Zm-14.992-2.858l-3.09399,10.39999-2.965-10.39999h-4l4.23401,13.127h5.34299l4.267-13.127h-3.785Zm25.74899,13.127h3.70801V3.79799h-3.70901l.00101,13.12601Zm10.39603-13.12201l-5.177,13.117h3.65601l.819-2.31799h6.12601l.77499,2.31799h3.96899l-5.216-13.118-4.952,.00099Zm2.40701,2.39301l2.246,6.145h-4.56201l2.31601-6.145Z"/><path id="e" class="f" d="M11.27999,5.98599v-1.807c.175-.013,.353-.022,.533-.028,4.94099-.155,8.183,4.246,8.183,4.246,0,0-3.5,4.86301-7.255,4.86301-.49651,.00218-.99002-.07686-1.461-.23399V7.54801c1.924,.232,2.31,1.082,3.467,3.00999l2.57201-2.169c-1.24878-1.50708-3.08562-2.40401-5.04199-2.462-.33415,.00174-.66797,.02144-1,.059M11.277,.01801V2.718c.177-.014,.355-.025,.533-.032,6.871-.232,11.34801,5.635,11.34801,5.635,0,0-5.142,6.25301-10.5,6.25301-.46368-.00003-.92647-.04085-1.383-.12199v1.668c.3817,.04932,.76613,.07436,1.151,.075,4.985,0,8.59-2.54601,12.08099-5.55901,.578,.463,2.948,1.591,3.435,2.08501-3.319,2.778-11.05499,5.01801-15.44,5.01801-.423,0-.82899-.026-1.228-.064v2.34399H30.22102V.01902l-18.94402-.00101Zm0,13.009v1.424c-4.611-.82201-5.89-5.615-5.89-5.615,1.58667-1.58575,3.66189-2.58989,5.89-2.85v1.563h-.007c-1.32294-.01662-2.58388,.55975-3.437,1.571,0,0,.845,3.035,3.444,3.908M3.088,8.62801c1.97275-2.5801,4.95084-4.19807,8.189-4.449v-1.463C5.234,3.20101,0,8.31601,0,8.31601c0,0,2.964,8.56899,11.277,9.354v-1.55499c-6.09801-.76302-8.18601-7.48602-8.18601-7.48602l-.00299-.00098Z"/></g></svg>