<svg id="Layer_1" xmlns="http://www.w3.org/2000/svg" width="16" height="16" viewBox="0 0 16 16">
    <defs>
        <style>
            .cls-1 {
                fill: #fff;
            }

            .cls-2 {
                fill: #ccc;
            }
             @media (prefers-color-scheme: dark) {
     .cls-1 {
                fill: #222222;
            }

            .cls-2 {
                fill: #333333;
            }
        }

        </style>
    </defs>
    <rect class="cls-1" x=".5" y=".5" width="15" height="15" rx="1.5" ry="1.5" />
    <path class="cls-2" d="M14,1c.55,0,1,.45,1,1V14c0,.55-.45,1-1,1H2c-.55,0-1-.45-1-1V2c0-.55,.45-1,1-1H14m0-1H2C.9,0,0,.9,0,2V14c0,1.1,.9,2,2,2H14c1.1,0,2-.9,2-2V2c0-1.1-.9-2-2-2h0Z" />
</svg>
