<svg width="18" height="18" viewBox="0 0 18 18" fill="none" xmlns="http://www.w3.org/2000/svg">
<path d="M8.75994 4.15385C9.59599 4.15385 10.644 3.60458 11.2681 2.87222C11.8333 2.20852 12.2454 1.28163 12.2454 0.354736C12.2454 0.228862 12.2337 0.102988 12.2101 0C11.2799 0.0343293 10.1612 0.606485 9.49001 1.37317C8.96012 1.95677 8.47733 2.87222 8.47733 3.81055C8.47733 3.94787 8.50088 4.08519 8.51266 4.13096C8.57153 4.1424 8.66573 4.15385 8.75994 4.15385ZM5.81611 18C6.95831 18 7.46465 17.2562 8.88947 17.2562C10.3378 17.2562 10.6558 17.9771 11.9275 17.9771C13.1757 17.9771 14.0117 16.8557 14.8007 15.7572C15.6838 14.4984 16.0489 13.2626 16.0724 13.2053C15.99 13.1825 13.5996 12.2327 13.5996 9.56643C13.5996 7.25493 15.4836 6.2136 15.5896 6.1335C14.3414 4.39415 12.4456 4.34838 11.9275 4.34838C10.5262 4.34838 9.38403 5.17228 8.66573 5.17228C7.88856 5.17228 6.86411 4.39415 5.65125 4.39415C3.34329 4.39415 1 6.24793 1 9.74952C1 11.9237 1.87137 14.2238 2.94293 15.7114C3.8614 16.9701 4.66213 18 5.81611 18Z" fill="black"/>
</svg>
