<?xml version="1.0" encoding="UTF-8"?><svg id="Layer_1" xmlns="http://www.w3.org/2000/svg" width="18" height="24" viewBox="0 0 18 24"><path d="m7.26,7.99v-.68c.08,0,.16-.01.25-.01,3.18-.11,5.26,2.61,5.26,2.61,0,0-2.38,2.9-4.86,2.9-.23,0-.44-.02-.64-.06v-.66c.2.07.43.11.68.11,1.74,0,3.36-2.25,3.36-2.25,0,0-1.5-2.04-3.79-1.97-.08,0-.17,0-.25.01Zm-2.73,2.16s1.03-1.14,2.73-1.32v-.84c-2.53.19-3.79,2.06-3.79,2.06,0,0,.97,3.11,3.79,3.47v-.77c-2.14-.38-2.73-2.6-2.73-2.6Zm4.33.8l1.19-1s-.87-1.14-2.34-1.14c-.16,0-.31.01-.46.03v.72c.89.11,1.07.5,1.61,1.39Zm-1.61-1.39c-.89-.11-1.59.73-1.59.73,0,0,.39,1.41,1.6,1.81v-2.54s0,0,0,0Zm7.72,2.4c-.23-.23-1.32-.75-1.59-.97-1.62,1.4-3.29,2.57-5.6,2.57-.18,0-.36-.01-.53-.03v.72c.18.02.37.03.57.03,2.03,0,5.61-1.04,7.15-2.32Zm3.02-10.95v22H0V5L3.79,1h14.21ZM1,6h4V2L1,6Zm8,11H2v4h7v-4Zm4,2h-3v1h3v-1Zm3-2h-6v1h6v-1Zm.04-10.93H7.26v1.25c-2.8.22-5.22,2.6-5.22,2.6,0,0,1.37,3.97,5.22,4.33v1.09h8.78V6.07Z" style="stroke-width:0px;"/></svg>