<?xml version="1.0" encoding="UTF-8"?><svg id="Layer_1" xmlns="http://www.w3.org/2000/svg" width="24" height="24" viewBox="0 0 24 24"><path d="m0,10.2v-4.95h.92l2.24,3.23v-3.23h.98v4.95h-.92L.98,6.97v3.23h-.98Zm6.66,0l-1.84-4.95h1.12l1.22,3.65,1.22-3.65h1.06l-1.85,4.95h-.93Zm3.44,0v-4.95h1.03v4.95h-1.03Zm2.21,0v-4.95h1.97c.5,0,.92.1,1.26.29s.6.47.78.81c.18.35.26.76.26,1.23v.28c0,.73-.2,1.3-.59,1.72-.4.42-.97.63-1.71.63h-1.97Zm1.03-.89h.91c.42,0,.74-.12.96-.35.22-.23.34-.59.34-1.08v-.32c0-.47-.11-.82-.34-1.06-.22-.24-.55-.36-.96-.36h-.91v3.17Zm4.2.89v-4.95h1.03v4.95h-1.03Zm1.71,0l1.91-4.95h.93l1.92,4.95h-1.12l-.35-1h-1.88l-.35,1h-1.05Zm1.71-1.85h1.27l-.63-1.78-.64,1.78ZM0,18.62v-6.68h1.24l3.02,4.36v-4.36h1.33v6.68h-1.24l-3.03-4.36v4.36H0Zm9.11.13c-.75,0-1.33-.21-1.75-.64-.41-.43-.62-1.03-.62-1.8v-.29c0-.78.21-1.38.63-1.81.42-.43,1-.65,1.74-.65h.08c.7,0,1.25.21,1.64.63.39.42.59,1.01.59,1.75v.6h-3.35c.05.76.39,1.14,1.05,1.14h.13c.5,0,.86-.17,1.06-.51l.96.64c-.18.29-.44.52-.8.69-.35.17-.76.25-1.22.25h-.14Zm-1.04-3.1h2.04v-.03c0-.66-.31-.99-.93-.99h-.08c-.61,0-.96.34-1.04,1.02Zm3.78-1.96h1.41l.82,3.25.9-3.25h1.18l.88,3.18.82-3.18h1.33l-1.51,4.92h-1.21l-.94-3.29-.95,3.29h-1.21l-1.51-4.92Zm9.9,5.06c-1.14,0-1.87-.38-2.17-1.13l1.04-.52c.09.19.22.33.4.43.18.09.42.14.73.14h.12c.55,0,.82-.14.82-.43v-.04c0-.24-.16-.39-.48-.43l-.99-.13c-.48-.07-.85-.23-1.11-.47-.26-.25-.39-.57-.39-.99v-.09c0-.47.18-.84.54-1.11.36-.27.84-.41,1.44-.41h.14c.5,0,.91.1,1.26.29.34.19.59.47.74.83l-1.06.47c-.15-.33-.47-.5-.96-.5h-.12c-.46,0-.7.14-.7.41v.04c0,.1.04.18.11.24s.18.1.34.13l1.03.14c.48.06.84.23,1.1.5s.39.61.39,1.03v.09c0,.5-.18.88-.53,1.14-.36.25-.88.38-1.57.38h-.14Z" style="stroke-width:0px;"/></svg>