<?xml version="1.0" encoding="UTF-8"?><svg id="Layer_1" xmlns="http://www.w3.org/2000/svg" width="24" height="24" viewBox="0 0 24 24"><path d="m-.06,10.62v-4.95h.92l2.24,3.23v-3.23h.98v4.95h-.92L.93,7.39v3.23H-.06Zm6.66,0l-1.84-4.95h1.12l1.22,3.65,1.22-3.65h1.06l-1.85,4.95h-.93Zm3.44,0v-4.95h1.03v4.95h-1.03Zm2.21,0v-4.95h1.97c.5,0,.92.1,1.26.29s.6.47.78.81c.18.35.26.76.26,1.23v.28c0,.73-.2,1.3-.59,1.72-.4.42-.97.63-1.71.63h-1.97Zm1.03-.89h.91c.42,0,.74-.12.96-.35.22-.23.34-.59.34-1.08v-.32c0-.47-.11-.82-.34-1.06-.22-.24-.55-.36-.96-.36h-.91v3.17Zm4.2.89v-4.95h1.03v4.95h-1.03Zm1.71,0l1.91-4.95h.93l1.92,4.95h-1.12l-.35-1h-1.88l-.35,1h-1.05Zm1.71-1.85h1.27l-.63-1.78-.64,1.78ZM.06,18.21v-5.87h1.09l2.66,3.84v-3.84h1.17v5.87h-1.09l-2.66-3.84v3.84H.06Zm6.31,0v-5.87h3.9v1.04h-2.68v1.35h2.17l-.14,1.04h-2.03v1.4h2.73v1.04h-3.95Zm4.54-5.87h1.33l1.08,4.1,1.07-4.1h1.13l1.07,4.1,1.08-4.1h1.26l-1.8,5.87h-1.15l-1.05-3.94-1.05,3.94h-1.15l-1.8-5.87Zm10.75,5.99c-1.23,0-2.01-.43-2.34-1.3l1.03-.53c.2.52.63.78,1.31.78h.11c.71,0,1.07-.23,1.07-.69v-.08c0-.18-.06-.33-.18-.46s-.3-.21-.53-.23l-.92-.11c-.56-.07-.98-.24-1.27-.52-.29-.28-.44-.67-.44-1.15v-.1c0-.35.09-.65.27-.9s.43-.45.76-.59c.33-.14.71-.21,1.15-.21h.13c.54,0,.99.11,1.36.32.37.21.64.53.8.94l-1.07.45c-.15-.44-.51-.66-1.09-.66h-.11c-.3,0-.54.06-.71.18s-.26.27-.26.47v.08c0,.34.23.54.7.6l.92.11c.57.07,1,.25,1.29.56.29.31.43.71.43,1.2v.1c0,.56-.2.99-.59,1.3-.39.3-.95.46-1.69.46h-.13Z" style="stroke-width:0px;"/></svg>