<?xml version="1.0" encoding="UTF-8"?><svg id="Layer_1" xmlns="http://www.w3.org/2000/svg" width="24" height="24" viewBox="0 0 24 24"><path d="m-.06,9.96v-4.95h.92l2.24,3.23v-3.23h.98v4.95h-.92L.93,6.73v3.23H-.06Zm6.66,0l-1.84-4.95h1.12l1.22,3.65,1.22-3.65h1.06l-1.85,4.95h-.93Zm3.44,0v-4.95h1.03v4.95h-1.03Zm2.21,0v-4.95h1.97c.5,0,.92.1,1.26.29s.6.47.78.81c.18.35.26.76.26,1.23v.28c0,.73-.2,1.3-.59,1.72-.4.42-.97.63-1.71.63h-1.97Zm1.03-.89h.91c.42,0,.74-.12.96-.35.22-.23.34-.59.34-1.08v-.32c0-.47-.11-.82-.34-1.06-.22-.24-.55-.36-.96-.36h-.91v3.17Zm4.2.89v-4.95h1.03v4.95h-1.03Zm1.71,0l1.91-4.95h.93l1.92,4.95h-1.12l-.35-1h-1.88l-.35,1h-1.05Zm1.71-1.85h1.27l-.63-1.78-.64,1.78ZM0,18.86v-6.48h2.64c.71,0,1.27.16,1.68.49s.62.76.62,1.31v.16c0,.25-.06.47-.19.66s-.3.36-.53.49c.32.13.57.31.74.55s.26.52.26.84v.16c0,.57-.2,1.02-.61,1.35-.41.32-.97.49-1.69.49H0Zm1.35-3.84h1.25c.66,0,.98-.22.98-.67v-.16c0-.21-.09-.37-.25-.49-.17-.12-.41-.18-.73-.18h-1.25v1.49Zm0,2.7h1.53c.65,0,.98-.23.98-.69v-.17c0-.22-.08-.39-.25-.52s-.41-.19-.73-.19h-1.53v1.56Zm4.92,1.15v-6.48h1.35v5.32h2.83v1.17h-4.18Zm7.99.13c-.63,0-1.17-.13-1.62-.39s-.79-.63-1.03-1.1c-.24-.48-.36-1.04-.36-1.7v-.37c0-.65.12-1.22.36-1.7.24-.47.58-.84,1.03-1.1s.99-.39,1.62-.39h.09c.63,0,1.17.13,1.62.39s.79.63,1.03,1.1c.24.48.36,1.04.36,1.7v.37c0,.66-.12,1.22-.36,1.7-.24.47-.58.84-1.03,1.1s-.99.39-1.62.39h-.09Zm0-1.18h.07c.51,0,.91-.16,1.21-.49.3-.33.45-.82.45-1.48v-.43c0-.66-.15-1.15-.45-1.48-.3-.33-.7-.49-1.21-.49h-.07c-.51,0-.91.16-1.21.49-.3.33-.45.82-.45,1.48v.43c0,.66.15,1.15.45,1.48.3.33.7.49,1.21.49Zm7.13,1.18c-2.06,0-3.08-1.06-3.08-3.17v-.36c0-.67.12-1.25.36-1.73.24-.48.58-.85,1.02-1.1s.98-.38,1.6-.38h.08c.62,0,1.15.13,1.58.4.43.27.74.65.93,1.15l-1.24.44c-.17-.54-.6-.81-1.28-.81h-.06c-.53,0-.94.17-1.22.51-.28.34-.42.84-.42,1.5v.42c0,.67.14,1.16.42,1.47s.71.47,1.31.47h.06c.24,0,.47-.02.69-.06.22-.04.4-.09.57-.17v-1.19h-1.39l.16-1.13h2.53v2.98c-.32.25-.69.43-1.12.56-.43.13-.9.19-1.4.19h-.08Z" style="stroke-width:0px;"/></svg>