<?xml version="1.0" encoding="UTF-8"?><svg id="Layer_1" xmlns="http://www.w3.org/2000/svg" width="24" height="24" viewBox="0 0 24 24"><path d="m-.06,7.71V2.76h.92l2.24,3.23v-3.23h.98v4.95h-.92L.93,4.48v3.23H-.06Zm6.66,0l-1.84-4.95h1.12l1.22,3.65,1.22-3.65h1.06l-1.85,4.95h-.93Zm3.44,0V2.76h1.03v4.95h-1.03Zm2.21,0V2.76h1.97c.5,0,.92.1,1.26.29s.6.47.78.81c.18.35.26.76.26,1.23v.28c0,.73-.2,1.3-.59,1.72-.4.42-.97.63-1.71.63h-1.97Zm1.03-.89h.91c.42,0,.74-.12.96-.35.22-.23.34-.59.34-1.08v-.32c0-.47-.11-.82-.34-1.06-.22-.24-.55-.36-.96-.36h-.91v3.17Zm4.2.89V2.76h1.03v4.95h-1.03Zm1.71,0l1.91-4.95h.93l1.92,4.95h-1.12l-.35-1h-1.88l-.35,1h-1.05Zm1.71-1.85h1.27l-.63-1.78-.64,1.78ZM0,18.67v-8.42h3.43c.92,0,1.65.21,2.18.63s.8.99.8,1.7v.21c0,.32-.08.61-.25.86s-.4.46-.69.63c.42.17.74.41.96.71s.34.67.34,1.09v.2c0,.75-.26,1.33-.79,1.75-.53.42-1.26.63-2.2.63H0Zm1.76-4.99h1.62c.85,0,1.28-.29,1.28-.87v-.21c0-.27-.11-.48-.33-.64-.22-.15-.54-.23-.95-.23h-1.62v1.94Zm0,3.5h1.98c.85,0,1.27-.3,1.27-.89v-.23c0-.29-.11-.51-.33-.67s-.53-.24-.94-.24h-1.98v2.03Zm6.17,1.49v-8.78h1.69v8.78h-1.69Zm5.95.17c-.58,0-1.09-.12-1.55-.36-.46-.24-.82-.59-1.08-1.05-.26-.46-.4-1.02-.4-1.68v-.36c0-.67.13-1.23.4-1.68.26-.46.63-.81,1.08-1.05.46-.24.97-.36,1.55-.36h.08c.58,0,1.09.12,1.55.36.46.24.82.59,1.08,1.05.26.46.4,1.02.4,1.68v.36c0,.66-.13,1.22-.4,1.68-.26.46-.62.81-1.08,1.05-.46.24-.97.36-1.55.36h-.08Zm0-1.44h.08c.39,0,.71-.13.97-.39s.38-.67.38-1.23v-.43c0-.56-.13-.97-.38-1.23s-.58-.39-.97-.39h-.08c-.39,0-.72.13-.97.39s-.38.67-.38,1.23v.43c0,.56.13.97.38,1.23s.58.39.97.39Zm6.88,3.85c-.61,0-1.12-.1-1.52-.29-.4-.19-.72-.48-.96-.87l1.18-.9c.16.24.34.41.55.51.2.1.48.15.82.15h.14c.9,0,1.35-.53,1.35-1.59v-.39c-.42.5-.99.75-1.73.75h-.1c-.51,0-.96-.13-1.35-.38-.39-.25-.69-.6-.91-1.06-.22-.45-.32-.98-.32-1.58v-.29c0-.6.11-1.13.32-1.58.22-.45.52-.81.91-1.06.39-.25.84-.38,1.35-.38h.1c.88,0,1.53.31,1.95.94v-.76h1.47v5.72c0,.98-.26,1.73-.77,2.25-.51.53-1.25.79-2.2.79h-.28Zm.17-4.07h.11c.39,0,.7-.14.94-.43s.37-.67.37-1.13v-.31c0-.47-.12-.84-.37-1.13-.24-.29-.56-.43-.94-.43h-.11c-.42,0-.74.14-.98.41s-.35.66-.35,1.15v.3c0,.49.12.87.35,1.15.24.28.56.42.98.42Z" style="stroke-width:0px;"/></svg>