<?xml version="1.0" encoding="UTF-8"?><svg id="Layer_1" xmlns="http://www.w3.org/2000/svg" width="22" height="24" viewBox="0 0 22 24"><path fill="currentColor" d="m8.76,4.22v-.87c.11,0,.21-.02.32-.02,4.09-.14,6.76,3.36,6.76,3.36,0,0-3.06,3.72-6.25,3.72-.29,0-.57-.03-.82-.07v-.85c.26.09.55.14.87.14,2.24,0,4.32-2.9,4.32-2.9,0,0-1.93-2.62-4.87-2.53-.11,0-.21,0-.32.02Zm2.06,3.8l1.53-1.29s-1.12-1.47-3-1.47c-.21,0-.4.01-.59.03v.93c1.15.14,1.38.64,2.06,1.79Zm-5.57-1.03s1.32-1.46,3.51-1.7v-1.08c-3.25.25-4.88,2.65-4.88,2.65,0,0,1.24,4,4.88,4.46v-.99c-2.75-.49-3.51-3.34-3.51-3.34Zm3.5-.77c-1.15-.14-2.05.94-2.05.94,0,0,.5,1.81,2.05,2.33v-3.26s0,0,0,0ZM22,0v24H0V0h22Zm-12,16H2v6h8v-6Zm10,5h-8v1h8v-1Zm0-3h-8v2h8v-2Zm0-2h-8v1h8v-1Zm.04-14.26h-11.28v1.61c-3.6.29-6.72,3.34-6.72,3.34,0,0,1.77,5.1,6.72,5.57v1.4h11.28V1.74Zm-1.36,7.56c-.29-.29-1.7-.97-2.05-1.24-2.08,1.79-4.23,3.31-7.19,3.31-.24,0-.47-.02-.69-.04v.93c.24.02.48.04.73.04,2.61,0,7.22-1.33,9.2-2.99Z" style="stroke-width:0px;"/></svg>