<?xml version="1.0" encoding="UTF-8"?><svg id="Layer_1" xmlns="http://www.w3.org/2000/svg" width="24" height="24" viewBox="0 0 24 24"><path fill="currentColor" d="m13.26,8.75v.77c-2.83-.36-3.79-3.47-3.79-3.47,0,0,1.27-1.87,3.79-2.06v.84c-1.7.18-2.73,1.32-2.73,1.32,0,0,.59,2.22,2.73,2.6ZM24,0v20c0,2.21-1.79,4-4,4H3c-1.66,0-3-1.34-3-3V6h5v3h-2v11c0,.83.67,1.5,1.5,1.5s1.5-.67,1.5-1.5V0h18Zm-8,14h-8v6h8v-6Zm6,5h-5v1h5v-1Zm0-3h-5v2h5v-2Zm0-2h-5v1h5v-1Zm.04-11.93h-8.78v1.25c-2.8.22-5.22,2.6-5.22,2.6,0,0,1.37,3.97,5.22,4.33v1.09h8.78V2.07Zm-1.06,5.88c-.23-.23-1.32-.75-1.59-.97-1.62,1.4-3.29,2.57-5.6,2.57-.18,0-.36-.01-.53-.03v.72c.18.02.37.03.57.03,2.03,0,5.61-1.04,7.15-2.32Zm-7.72-2.4c-.89-.11-1.59.73-1.59.73,0,0,.39,1.41,1.6,1.81v-2.54s0,0,0,0Zm.25-1.57c2.29-.07,3.79,1.97,3.79,1.97,0,0-1.62,2.25-3.36,2.25-.25,0-.47-.04-.68-.11v.66c.2.04.41.06.64.06,2.48,0,4.86-2.9,4.86-2.9,0,0-2.07-2.72-5.26-2.61-.08,0-.16,0-.25.01v.68c.08,0,.16-.01.25-.01Zm1.36,2.97l1.19-1s-.87-1.14-2.34-1.14c-.16,0-.31.01-.46.03v.72c.89.11,1.07.5,1.61,1.39Z" style="stroke-width:0px;"/></svg>