<?xml version="1.0" encoding="UTF-8"?><svg id="Layer_1" xmlns="http://www.w3.org/2000/svg" width="20" height="24" viewBox="0 0 20 24"><path d="m7.46,6.16v-1.14c.12,0,.23-.01.35-.02,3.27-.1,5.41,2.68,5.41,2.68,0,0-2.32,3.06-4.8,3.06-.36,0-.68-.05-.97-.15v-3.45c1.27.15,1.53.68,2.29,1.9l1.7-1.37s-1.24-1.55-3.34-1.55c-.23,0-.45.02-.66.04m0-3.76v1.7c.12,0,.23-.02.35-.02,4.55-.15,7.51,3.55,7.51,3.55,0,0-3.4,3.94-6.95,3.94-.32,0-.63-.03-.91-.08v1.05c.24.03.5.05.76.05,3.3,0,5.68-1.6,7.99-3.5.38.29,1.95,1,2.27,1.31-2.2,1.75-7.32,3.16-10.22,3.16-.28,0-.55-.02-.81-.04v1.48h12.54V2.4H7.46Zm0,8.2v.9c-3.05-.52-3.9-3.54-3.9-3.54,0,0,1.46-1.55,3.9-1.8v.98s0,0,0,0c-1.28-.15-2.27.99-2.27.99,0,0,.56,1.91,2.28,2.46m-5.42-2.77s1.81-2.54,5.42-2.8v-.92c-4,.31-7.46,3.53-7.46,3.53,0,0,1.96,5.4,7.46,5.89v-.98c-4.04-.48-5.42-4.72-5.42-4.72Zm7.96,9.18H2v5h8v-5Zm9,0h-8v1h8v-1Zm-3,2h-5v1h5v-1Z" style="stroke-width:0px;"/></svg>