<?xml version="1.0" encoding="UTF-8"?><svg id="Layer_1" xmlns="http://www.w3.org/2000/svg" width="21" height="24" viewBox="0 0 21 24"><path d="m18,21v2H0V4h2v17h16ZM10.51,4.98c2.29-.07,3.79,1.97,3.79,1.97,0,0-1.62,2.25-3.36,2.25-.25,0-.47-.04-.68-.11v.66c.2.04.41.06.64.06,2.48,0,4.86-2.9,4.86-2.9,0,0-2.07-2.72-5.26-2.61-.08,0-.16,0-.25.01v.68c.08,0,.16-.01.25-.01Zm1.36,2.97l1.19-1s-.87-1.14-2.34-1.14c-.16,0-.31.01-.46.03v.72c.89.11,1.07.5,1.61,1.39ZM21,1v19H3V1h18Zm-9,13h-7v4h7v-4Zm4,2h-3v1h3v-1Zm3-2h-6v1h6v-1Zm.04-10.93h-8.78v1.25c-2.8.22-5.22,2.6-5.22,2.6,0,0,1.37,3.97,5.22,4.33v1.09h8.78V3.07Zm-8.78,3.49c-.89-.11-1.59.73-1.59.73,0,0,.39,1.41,1.6,1.81v-2.54s0,0,0,0Zm7.72,2.4c-.23-.23-1.32-.75-1.59-.97-1.62,1.4-3.29,2.57-5.6,2.57-.18,0-.36-.01-.53-.03v.72c.18.02.37.03.57.03,2.03,0,5.61-1.04,7.15-2.32Zm-10.45-1.8s1.03-1.14,2.73-1.32v-.84c-2.53.19-3.79,2.06-3.79,2.06,0,0,.97,3.11,3.79,3.47v-.77c-2.14-.38-2.73-2.6-2.73-2.6Z" style="stroke-width:0px;"/></svg>