<?xml version="1.0" encoding="utf-8"?>
<!-- Generator: Adobe Illustrator 23.0.2, SVG Export Plug-In . SVG Version: 6.00 Build 0)  -->
<svg version="1.1" id="Layer_1" xmlns="http://www.w3.org/2000/svg" xmlns:xlink="http://www.w3.org/1999/xlink" x="0px" y="0px"
	 viewBox="0 0 1250 703" style="enable-background:new 0 0 1250 703;" xml:space="preserve">
<style type="text/css">
	.st0{fill:#049FD9;}
</style>
<title>nvidia-partner-name-logo</title>
<g id="LOGO">
	<path id="path10" class="st0" d="M620.6,407.1c-8.7-2.2-17.7-3.3-26.7-3.5c-25.2,0-40.4,13.6-40.4,33.9c0,18,12.7,26.9,28,31.7
		c1.7,0.6,4.2,1.3,5.8,1.9c6.8,2.1,12.2,5.3,12.2,10.8c0,6.1-6.3,10.1-19.9,10.1c-12,0-23.4-3.4-25.8-4v25c9.7,1.9,19.6,2.9,29.5,3
		c20.9,0,44.9-9.1,44.9-36.4c0-13.2-8.1-25.4-25.8-31l-7.5-2.4c-4.5-1.4-12.5-3.7-12.5-10.3c0-5.2,6-8.9,16.9-8.9
		c9.5,0,21,3.2,21.4,3.3L620.6,407.1z M851.9,459.8c0,15.8-12.1,28.5-28.3,28.5s-28.3-12.8-28.3-28.5s12.1-28.5,28.3-28.5
		S851.9,444.1,851.9,459.8 M823.6,403.7c-33.4,0-57.3,25.2-57.3,56.1s23.9,56.2,57.3,56.2s57.3-25.1,57.3-56.2
		S856.9,403.7,823.6,403.7 M516.8,514.1h-27.4V405.6h27.4"/>
	<path id="path12" class="st0" d="M451.8,407.6c-8.1-2.6-16.5-3.9-25-3.9c-33.3,0-57.8,23.8-57.8,56.1c0,34.9,27,56.2,57.8,56.2
		c8.5-0.1,16.9-1.4,25-3.9V483c-7.1,3.8-15,5.8-23,5.8c-18.2,0-30-12.8-30-29c0-16.6,12.3-28.9,30-28.9c8,0,15.9,1.9,23,5.8"/>
	<g id="use14">
		<path class="st0" d="M737.5,407.6c-8.1-2.6-16.5-3.9-25-3.9c-33.3,0-57.8,23.8-57.8,56.1c0,34.9,27,56.2,57.8,56.2
			c8.5-0.1,16.9-1.4,25-3.9V483c-7.1,3.8-15,5.8-23,5.8c-18.2,0-30-12.8-30-29c0-16.6,12.3-28.9,30-28.9c8,0,15.9,1.9,23,5.8"/>
	</g>
	<g id="g22">
		<path id="path16" class="st0" d="M489.4,200.5c0-7.5-6.1-13.6-13.6-13.6c-7.5,0-13.6,6.1-13.6,13.6v144c0,7.5,6.1,13.6,13.6,13.6
			c7.5,0,13.6-6.1,13.6-13.6V200.5z M414.7,251.7c0-7.5-6.1-13.6-13.6-13.6c-7.5,0-13.6,6.1-13.6,13.6v65.8
			c0,7.5,6.1,13.6,13.6,13.6c7.5,0,13.6-6.1,13.6-13.6V251.7z M340.1,289c0-7.5-6.1-13.6-13.6-13.6c-7.5,0-13.6,6.1-13.6,13.6v28.5
			c0,7.5,6.1,13.6,13.6,13.6c7.5,0,13.6-6.1,13.6-13.6"/>
		<g id="use18">
			<path class="st0" d="M462.2,200.5c0-7.5,6.1-13.6,13.6-13.6c7.5,0,13.6,6.1,13.6,13.6v144c0,7.5-6.1,13.6-13.6,13.6
				c-7.5,0-13.6-6.1-13.6-13.6V200.5z M536.8,251.7c0-7.5,6.1-13.6,13.6-13.6c7.5,0,13.6,6.1,13.6,13.6v65.8
				c0,7.5-6.1,13.6-13.6,13.6c-7.5,0-13.6-6.1-13.6-13.6V251.7z M611.5,289c0.2-7.5,6.5-13.4,14-13.2c7.2,0.2,13,6,13.2,13.2v28.5
				c-0.2,7.5-6.5,13.4-14,13.2c-7.2-0.2-13-6-13.2-13.2"/>
		</g>
	</g>
	<g id="use20">
		<path class="st0" d="M760.7,200.5c0-7.5,6.1-13.6,13.6-13.6c7.5,0,13.6,6.1,13.6,13.6v144c0,7.5-6.1,13.6-13.6,13.6
			c-7.5,0-13.6-6.1-13.6-13.6V200.5z M835.3,251.7c0-7.5,6.1-13.6,13.6-13.6c7.5,0,13.6,6.1,13.6,13.6v65.8
			c0,7.5-6.1,13.6-13.6,13.6c-7.5,0-13.6-6.1-13.6-13.6V251.7z M909.9,289c0-7.5,6.1-13.6,13.6-13.6c7.5,0,13.6,6.1,13.6,13.6v28.5
			c0,7.5-6.1,13.6-13.6,13.6c-7.5,0-13.6-6.1-13.6-13.6"/>
		<path class="st0" d="M787.8,200.5c0-7.5-6.1-13.6-13.6-13.6c-7.5,0-13.6,6.1-13.6,13.6v144c0,7.5,6.1,13.6,13.6,13.6
			c7.5,0,13.6-6.1,13.6-13.6V200.5z M713.2,251.7c0-7.5-6.1-13.6-13.6-13.6c-7.5,0-13.6,6.1-13.6,13.6v65.8
			c0,7.5,6.1,13.6,13.6,13.6c7.5,0,13.6-6.1,13.6-13.6V251.7z M638.5,289c-0.2-7.5-6.5-13.4-14-13.2c-7.2,0.2-13,6-13.2,13.2v28.5
			c0.2,7.5,6.5,13.4,14,13.2c7.2-0.2,13-6,13.2-13.2"/>
	</g>
</g>
</svg>
